<?xml version="1.0" encoding="UTF-8" standalone="no"?>
<svg
   xmlns:dc="http://purl.org/dc/elements/1.1/"
   xmlns:cc="http://creativecommons.org/ns#"
   xmlns:rdf="http://www.w3.org/1999/02/22-rdf-syntax-ns#"
   xmlns:svg="http://www.w3.org/2000/svg"
   xmlns="http://www.w3.org/2000/svg"
   xmlns:sodipodi="http://sodipodi.sourceforge.net/DTD/sodipodi-0.dtd"
   xmlns:inkscape="http://www.inkscape.org/namespaces/inkscape"
   inkscape:export-ydpi="96"
   inkscape:export-xdpi="96"
   inkscape:export-filename="F:\OS Data\Mint\Imágenes\Social Media Logos\logo_gdevs.png"
   sodipodi:docname="logo_round.svg"
   inkscape:version="1.0alpha2 (1:0.92.0+devel+201907090511+74dcc2b)"
   id="svg855"
   version="1.1"
   viewBox="0 0 48 48.000001"
   height="48"
   width="48">
  <defs
     id="defs849">
    <filter
       height="1.0586551"
       y="-0.029327551"
       width="1.061408"
       x="-0.03070401"
       id="filter1239"
       style="color-interpolation-filters:sRGB"
       inkscape:collect="always">
      <feGaussianBlur
         id="feGaussianBlur1241"
         stdDeviation="4.0080988"
         inkscape:collect="always" />
    </filter>
  </defs>
  <sodipodi:namedview
     inkscape:guide-bbox="true"
     showguides="true"
     inkscape:showpageshadow="false"
     inkscape:pagecheckerboard="true"
     inkscape:document-rotation="0"
     inkscape:window-maximized="1"
     inkscape:window-y="0"
     inkscape:window-x="1920"
     inkscape:window-height="1054"
     inkscape:window-width="1920"
     inkscape:snap-center="true"
     showborder="true"
     fit-margin-bottom="0"
     fit-margin-right="0"
     fit-margin-left="0"
     fit-margin-top="0"
     units="px"
     showgrid="false"
     inkscape:current-layer="layer1"
     inkscape:document-units="px"
     inkscape:cy="24"
     inkscape:cx="24"
     inkscape:zoom="17.770833"
     inkscape:pageshadow="2"
     inkscape:pageopacity="0.0"
     borderopacity="1.0"
     bordercolor="#666666"
     pagecolor="#ffffff"
     id="base">
    <sodipodi:guide
       inkscape:locked="false"
       id="guide1156"
       orientation="1,0"
       position="180.00001,180.00001" />
    <sodipodi:guide
       inkscape:locked="false"
       id="guide1158"
       orientation="0,1"
       position="180.00001,180.00001" />
    <inkscape:grid
       id="grid1243"
       type="xygrid" />
  </sodipodi:namedview>
  <metadata
     id="metadata852">
    <rdf:RDF>
      <cc:Work
         rdf:about="">
        <dc:format>image/svg+xml</dc:format>
        <dc:type
           rdf:resource="http://purl.org/dc/dcmitype/StillImage" />
        <dc:title></dc:title>
      </cc:Work>
    </rdf:RDF>
  </metadata>
  <g
     transform="translate(-216.8504,-381.25983)"
     id="layer1"
     inkscape:groupmode="layer"
     inkscape:label="Capa 1">
    <g
       transform="matrix(0.13333333,0,0,0.13333333,187.93702,330.42518)"
       id="g903">
      <circle
         style="vector-effect:none;fill:#ffffff;fill-opacity:1;stroke:none;stroke-width:2.63153;stroke-linejoin:round;paint-order:stroke markers fill;stop-color:#000000"
         id="path872"
         cx="396.8504"
         cy="561.25983"
         r="180" />
      <g
         transform="matrix(0.91463412,0,0,0.91463412,38.877402,52.912321)"
         inkscape:transform-center-y="12.804875"
         inkscape:transform-center-x="-3.1205837"
         id="g1225"
         style="fill:#000000;filter:url(#filter1239)">
        <g
           inkscape:transform-center-y="13.999998"
           inkscape:transform-center-x="-3.4118418"
           id="g1223"
           style="fill:#000000">
          <path
             d="M 412.68699,427.80351 396.8504,443.6401 381.01381,427.80351 396.8504,411.96693 Z"
             style="font-style:normal;font-variant:normal;font-weight:bold;font-stretch:normal;font-size:46.6667px;line-height:125%;font-family:'Segoe UI Emoji';-inkscape-font-specification:'Segoe UI Emoji Bold';letter-spacing:0px;word-spacing:0px;opacity:1;vector-effect:none;fill:#000000;fill-opacity:1;stroke:#160000;stroke-width:1;stroke-linecap:butt;stroke-linejoin:miter;stroke-miterlimit:4;stroke-dasharray:none;stroke-dashoffset:0;stroke-opacity:1"
             id="path1199"
             inkscape:connector-curvature="0" />
          <g
             id="g1221"
             inkscape:transform-center-x="-3.4118418"
             inkscape:transform-center-y="13.999998"
             style="fill:#000000">
            <path
               style="color:#000000;clip-rule:nonzero;display:inline;overflow:visible;visibility:visible;opacity:1;isolation:auto;mix-blend-mode:normal;color-interpolation:sRGB;color-interpolation-filters:linearRGB;solid-color:#000000;solid-opacity:1;vector-effect:none;fill:#000000;fill-opacity:1;fill-rule:nonzero;stroke:none;stroke-width:1;stroke-linecap:butt;stroke-linejoin:miter;stroke-miterlimit:4;stroke-dasharray:none;stroke-dashoffset:0;stroke-opacity:1;paint-order:markers fill stroke;color-rendering:auto;image-rendering:auto;shape-rendering:auto;text-rendering:auto;enable-background:accumulate"
               d="M 125,40.482422 A 150,150 0 0 0 30,180 a 150,150 0 0 0 1.832031,22.13867 l 59.06836,-34.10156 A 90,90 0 0 1 125,108.82422 Z"
               transform="translate(216.8504,381.25983)"
               id="path1201"
               inkscape:connector-curvature="0" />
            <path
               style="color:#000000;clip-rule:nonzero;display:inline;overflow:visible;visibility:visible;opacity:1;isolation:auto;mix-blend-mode:normal;color-interpolation:sRGB;color-interpolation-filters:linearRGB;solid-color:#000000;solid-opacity:1;vector-effect:none;fill:#000000;fill-opacity:1;fill-rule:nonzero;stroke:none;stroke-width:1;stroke-linecap:butt;stroke-linejoin:miter;stroke-miterlimit:4;stroke-dasharray:none;stroke-dashoffset:0;stroke-opacity:1;paint-order:markers fill stroke;color-rendering:auto;image-rendering:auto;shape-rendering:auto;text-rendering:auto;enable-background:accumulate"
               d="m 235,40.595703 v 68.302737 a 90,90 0 0 1 34.0957,59.13476 l 59.12696,34.13672 A 150,150 0 0 0 330,180 150,150 0 0 0 235,40.595703 Z"
               transform="translate(216.8504,381.25983)"
               id="path1203"
               inkscape:connector-curvature="0" />
            <path
               style="color:#000000;clip-rule:nonzero;display:inline;overflow:visible;visibility:visible;opacity:1;isolation:auto;mix-blend-mode:normal;color-interpolation:sRGB;color-interpolation-filters:linearRGB;solid-color:#000000;solid-opacity:1;vector-effect:none;fill:#000000;fill-opacity:1;fill-rule:nonzero;stroke:none;stroke-width:1;stroke-linecap:butt;stroke-linejoin:miter;stroke-miterlimit:4;stroke-dasharray:none;stroke-dashoffset:0;stroke-opacity:1;paint-order:markers fill stroke;color-rendering:auto;image-rendering:auto;shape-rendering:auto;text-rendering:auto;enable-background:accumulate"
               d="M 214.01953,263.25391 A 90,90 0 0 1 180,270 90,90 0 0 1 145.96289,263.26367 L 86.720703,297.4668 A 150,150 0 0 0 180,330 150,150 0 0 0 273.13672,297.38477 Z"
               transform="translate(216.8504,381.25983)"
               id="path1205"
               inkscape:connector-curvature="0" />
            <path
               inkscape:connector-curvature="0"
               id="path1207"
               style="font-style:normal;font-variant:normal;font-weight:bold;font-stretch:normal;font-size:46.6667px;line-height:125%;font-family:'Segoe UI Emoji';-inkscape-font-specification:'Segoe UI Emoji Bold';letter-spacing:0px;word-spacing:0px;fill:#000000;fill-opacity:1;stroke:#160000;stroke-width:1;stroke-linecap:butt;stroke-linejoin:miter;stroke-miterlimit:4;stroke-dasharray:none;stroke-opacity:1"
               d="m 401.93179,577.74685 h -10.16276 v -1.07097 q 0.86588,-0.59244 1.45833,-1.18489 0.61523,-0.59245 1.0026,-1.25326 0.38737,-0.68359 0.59245,-1.45833 0.20508,-0.79753 0.29623,-1.77734 v -0.56967 q -1.07097,0.79753 -2.34701,1.25326 -1.27604,0.45573 -2.6888,0.45573 -1.75456,0 -3.30404,-0.66081 -1.54948,-0.66081 -2.6888,-1.80013 -1.13932,-1.16211 -1.80013,-2.6888 -0.66081,-1.54948 -0.66081,-3.30404 0,-1.57226 0.5013,-2.96224 0.52409,-1.38997 1.48112,-2.48372 0.11394,-0.13672 0.22787,-0.27344 0.13672,-0.13672 0.52409,-0.52409 0.41015,-0.41015 1.20768,-1.20768 0.79752,-0.79753 2.21029,-2.21029 1.43554,-1.43554 3.62304,-3.62304 2.21029,-2.21029 5.42318,-5.42318 3.1901,3.1901 5.35482,5.35482 2.1875,2.16471 3.60026,3.57747 1.41276,1.38998 2.16471,2.16472 0.77474,0.75195 1.13932,1.11653 0.36459,0.36459 0.43295,0.45573 0.0911,0.0911 0.13672,0.13672 1.27604,1.43555 1.8457,2.89388 0.56966,1.43555 0.56966,3.00781 0,1.75456 -0.66081,3.30404 -0.6608,1.52669 -1.82291,2.6888 -1.13933,1.13932 -2.68881,1.80013 -1.52669,0.66081 -3.28125,0.66081 -1.45833,0 -2.73437,-0.45573 -1.27604,-0.45573 -2.36979,-1.25326 v 0.56967 q 0.0911,0.97981 0.29622,1.77734 0.22787,0.77474 0.61524,1.45833 0.41015,0.66081 1.02539,1.25326 0.61523,0.59245 1.48112,1.18489 z" />
            <path
               inkscape:connector-curvature="0"
               id="path1209"
               style="font-style:normal;font-variant:normal;font-weight:bold;font-stretch:normal;font-size:46.6667px;line-height:125%;font-family:'Segoe UI Emoji';-inkscape-font-specification:'Segoe UI Emoji Bold';letter-spacing:0px;word-spacing:0px;opacity:1;vector-effect:none;fill:#000000;fill-opacity:1;stroke:#160000;stroke-width:1;stroke-linecap:butt;stroke-linejoin:miter;stroke-miterlimit:4;stroke-dasharray:none;stroke-dashoffset:0;stroke-opacity:1"
               d="m 290.04205,632.36982 q 0.69885,1.43832 0.82157,2.97248 0.12271,1.53415 -0.29208,2.95765 -0.41479,1.4235 -1.36178,2.65435 -0.92727,1.21945 -2.32836,2.02837 -1.46028,0.8431 -3.08171,1.04251 -1.60171,0.18803 -3.11554,-0.20092 -1.49409,-0.40034 -2.79553,-1.3329 -1.28169,-0.94394 -2.1134,-2.3845 -0.91146,-1.57869 -1.06307,-3.25403 -0.13187,-1.68673 0.31322,-3.2856 l -0.37493,0.21647 q -0.76354,0.54602 -1.45033,1.17938 -0.68681,0.63333 -1.22326,1.39035 -0.52506,0.77676 -0.89145,1.64609 -0.35498,0.88904 -0.42678,1.90401 l -0.90775,0.52409 -4.88769,-8.46574 0.86828,-0.5013 q 0.92322,0.41419 1.85928,0.53156 0.94742,0.13709 1.85987,0.0313 0.94356,-0.0975 1.83544,-0.3756 0.90328,-0.2584 1.75794,-0.64658 l 0.37494,-0.21647 q -1.60721,-0.41396 -3.01342,-1.39127 -1.37508,-0.96898 -2.26375,-2.5082 -0.8431,-1.46029 -1.03113,-3.06198 -0.1569,-1.59336 0.24344,-3.08745 0.42008,-1.50549 1.38377,-2.79859 0.98341,-1.30449 2.44369,-2.14759 1.40109,-0.80892 2.92081,-1.00222 1.53944,-0.20471 2.97961,0.14783 1.45158,0.37226 2.71885,1.24561 1.27865,0.89309 2.17485,2.21747 0.13507,-0.13063 0.23372,-0.18759 0.11841,-0.0684 0.27628,-0.15951 1.46029,-0.8431 3.04225,-1.01972 1.6017,-0.18802 3.09579,0.21232 1.49409,0.40034 2.7758,1.34428 1.29311,0.96368 2.13621,2.42398 0.84309,1.46028 1.01972,3.04225 0.18802,1.6017 -0.21232,3.09579 -0.40034,1.49409 -1.36402,2.78719 -0.94394,1.28171 -2.40423,2.12481 z" />
            <path
               inkscape:connector-curvature="0"
               id="path1211"
               style="font-style:normal;font-variant:normal;font-weight:bold;font-stretch:normal;font-size:160px;line-height:125%;font-family:Shanghai;-inkscape-font-specification:'Shanghai Bold';letter-spacing:0px;word-spacing:0px;fill:#000000;fill-opacity:1;stroke:none;stroke-width:1px;stroke-linecap:butt;stroke-linejoin:miter;stroke-opacity:1"
               d="m 346.55228,618.63906 q -38.56435,-31.95165 -71.98752,-12.65478 -5.81861,3.35938 -11.4363,8.31675 -7.17101,6.48568 -7.95562,10.90796 -0.74835,3.86007 2.65009,9.74634 5.82031,10.08107 16.85722,14.35381 11.7163,4.51197 21.39142,-1.07397 7.17177,-4.14062 7.94441,-13.42738 0.65059,-8.4044 -3.68534,-15.91446 -3.28125,-5.68329 -10.29493,-11.73758 13.32758,5.11528 20.51508,17.5644 6.875,11.90785 2.88131,24.67808 -3.97556,12.48912 -15.81576,19.32506 -10.75765,6.21094 -23.99102,2.66507 -11.92413,-3.30944 -21.21109,-12.83243 2.36578,-8.40234 2.44446,-14.67232 0.17008,-5.33042 -1.37375,-14.72315 -5.34405,14.18134 -4.0645,27.33508 l -0.90049,0.15905 q -5.94872,-12.80348 -4.68379,-29.05007 1.30398,-16.17893 9.32446,-27.75581 6.50901,-9.35106 19.49939,-16.85106 28.28114,-16.32812 62.95437,-0.80359 5.8136,21.63196 10.9379,36.445 z" />
            <path
               inkscape:connector-curvature="0"
               id="path1213"
               style="font-style:normal;font-variant:normal;font-weight:bold;font-stretch:normal;font-size:160px;line-height:125%;font-family:Shanghai;-inkscape-font-specification:'Shanghai Bold';letter-spacing:0px;word-spacing:0px;fill:#000000;fill-opacity:1;stroke:none;stroke-width:1px;stroke-linecap:butt;stroke-linejoin:miter;stroke-opacity:1"
               d="m 398.06133,383.25982 q 18.35938,7.1875 29.21875,24.14062 10.54688,16.5625 10.54688,36.48438 0,19.92187 -12.73438,35 -11.79687,13.90625 -31.79687,20.54687 l -36.71875,-17.57812 q 26.40625,-0.9375 44.21875,-14.6875 19.6875,-15.3125 19.6875,-40.46875 0,-10.39063 -3.51563,-20 -4.84375,-1.875 -10.9375,-1.875 -12.65625,0 -21.01562,6.40625 -9.21875,7.03125 -9.21875,19.21875 0,9.21875 6.875,14.6875 6.32812,5.07812 15.85937,5.07812 7.1875,0 16.5625,-5.46875 -8.98437,11.79688 -25.9375,11.79688 -13.35937,0 -23.4375,-11.09375 -9.84375,-10.78125 -9.84375,-24.21875 0,-12.96875 10.46875,-22.89063 4.6875,-4.53125 12.42188,-8.67187 8.75,-4.76563 13.98437,-4.76563 l 0.70313,0.0781 q 8.59375,10.39062 21.40625,17.42187 -4.0625,-7.03125 -7.34375,-10.54687 -2.73438,-2.8125 -9.92188,-8.04688 z" />
            <path
               inkscape:connector-curvature="0"
               id="path1215"
               style="font-style:normal;font-variant:normal;font-weight:bold;font-stretch:normal;font-size:46.6667px;line-height:125%;font-family:'Segoe UI Emoji';-inkscape-font-specification:'Segoe UI Emoji Bold';letter-spacing:0px;word-spacing:0px;opacity:1;vector-effect:none;fill:#000000;fill-opacity:1;stroke:#160000;stroke-width:1;stroke-linecap:butt;stroke-linejoin:miter;stroke-miterlimit:4;stroke-dasharray:none;stroke-dashoffset:0;stroke-opacity:1"
               d="m 506.36282,624.5904 q -0.3747,-0.90044 -0.61047,-1.90483 -0.22439,-1.02415 -0.25364,-2.06718 -0.0293,-1.04306 0.18436,-2.05111 0.21363,-1.00806 0.74911,-1.93554 0.91146,-1.57869 2.33213,-2.62659 1.40093,-1.05929 3.03926,-1.4816 1.62999,-0.45343 3.37287,-0.23653 1.75428,0.19718 3.33298,1.10864 0.592,0.34179 1.35775,1.0207 0.77713,0.65917 1.58599,1.81027 0.82026,1.13136 1.61527,2.85331 0.80641,1.70222 1.48809,4.12177 0.66195,2.40817 1.1422,5.63234 0.46051,3.21278 0.589,7.36523 -3.74237,1.97025 -6.75497,3.17782 -3.01261,1.20757 -5.40937,1.84978 -2.38539,0.62248 -4.21189,0.77827 -1.83485,0.12467 -3.19364,-0.0283 -1.37853,-0.16442 -2.33796,-0.50785 -0.96776,-0.37456 -1.63871,-0.76193 -1.57868,-0.91146 -2.62659,-2.33212 -1.04789,-1.42067 -1.47019,-3.059 -0.44205,-1.64971 -0.22516,-3.3926 0.19718,-1.75429 1.10864,-3.33297 0.52409,-0.90775 1.29027,-1.59678 0.76619,-0.68906 1.67275,-1.1655 0.91794,-0.49618 1.90565,-0.79419 0.99912,-0.31775 1.96627,-0.44346 z" />
            <path
               inkscape:connector-curvature="0"
               id="path1217"
               style="font-style:normal;font-variant:normal;font-weight:bold;font-stretch:normal;font-size:160px;line-height:125%;font-family:Shanghai;-inkscape-font-specification:'Shanghai Bold';letter-spacing:0px;word-spacing:0px;fill:#000000;fill-opacity:1;stroke:none;stroke-width:1px;stroke-linecap:butt;stroke-linejoin:miter;stroke-opacity:1"
               d="m 473.33373,577.285 q -8.38877,49.37354 25.0344,68.67041 5.81861,3.35938 12.92067,5.74575 9.20226,2.96745 13.42437,1.4358 3.71709,-1.28195 7.11553,-7.16822 5.82031,-10.08108 4.00216,-21.77568 -1.95067,-12.4026 -11.62579,-17.98854 -7.17178,-4.14062 -15.60066,-0.16637 -7.60372,3.63878 -11.93966,11.14884 -3.28125,5.68329 -5.01757,14.78445 -2.23383,-14.09966 4.95367,-26.54877 6.875,-11.90785 19.93119,-14.83433 12.80368,-2.80163 24.64388,4.03431 10.75765,6.21094 14.30352,19.44431 3.09601,11.98131 -0.50766,24.78555 -8.45953,2.15234 -13.92883,5.21919 -4.70133,2.51793 -12.06375,8.55128 14.95342,-2.46258 25.70512,-10.14757 l 0.58799,0.70031 q -8.11378,11.55349 -22.81621,18.58133 -14.66335,6.96018 -28.69946,5.80268 -11.35276,-0.96144 -24.34314,-8.46144 -28.28114,-16.32812 -32.17312,-54.11828 15.82703,-15.85071 26.09335,-27.69501 z" />
            <path
               inkscape:connector-curvature="0"
               id="path1219"
               style="font-style:normal;font-variant:normal;font-weight:bold;font-stretch:normal;font-size:160px;line-height:125%;font-family:Shanghai;-inkscape-font-specification:'Shanghai Bold';letter-spacing:0px;word-spacing:0px;fill:#000000;fill-opacity:1;stroke:none;stroke-width:1px;stroke-linecap:butt;stroke-linejoin:miter;stroke-opacity:1"
               d="m 408.95978,504.89264 0.39062,-0.625 q 16.79688,8.90625 26.17188,23.67187 9.6875,15.23438 9.6875,33.67188 0,13.82812 -5.78125,26.09375 -6.01563,12.8125 -16.875,20.70312 -11.5625,8.51563 -18.75,8.51563 -3.75,0 -11.95313,-2.96875 -6.01562,-2.26563 -12.03125,-4.53125 4.375,4.29687 8.75,8.125 l -0.54687,0.70312 q -18.20313,-8.4375 -28.75,-24.45312 -10.78125,-16.25 -10.78125,-36.01563 0,-28.4375 22.57812,-44.92187 10.9375,-7.96875 18.82813,-7.96875 5.3125,0 14.45312,3.51562 7.03125,3.04688 14.0625,6.09375 -1.01562,-1.5625 -9.45312,-9.60937 z m -36.01563,96.875 q 23.59375,-3.51563 38.98438,-17.73438 16.79687,-15.54687 16.79687,-38.35937 0,-13.90625 -6.5625,-25.85938 -22.73437,1.25 -39.45312,16.79688 -17.34375,16.17187 -17.34375,38.28125 0,14.76562 7.57812,26.875 z" />
          </g>
        </g>
      </g>
      <g
         id="g842"
         inkscape:transform-center-x="-3.1205837"
         inkscape:transform-center-y="12.804875"
         transform="matrix(0.91463412,0,0,0.91463412,33.877481,47.912439)">
        <g
           id="g1197"
           inkscape:transform-center-x="-3.4118418"
           inkscape:transform-center-y="13.999998">
          <path
             inkscape:connector-curvature="0"
             id="path1419"
             style="font-style:normal;font-variant:normal;font-weight:bold;font-stretch:normal;font-size:46.6667px;line-height:125%;font-family:'Segoe UI Emoji';-inkscape-font-specification:'Segoe UI Emoji Bold';letter-spacing:0px;word-spacing:0px;opacity:1;vector-effect:none;fill:#ffffff;fill-opacity:1;stroke:#160000;stroke-width:1;stroke-linecap:butt;stroke-linejoin:miter;stroke-miterlimit:4;stroke-dasharray:none;stroke-dashoffset:0;stroke-opacity:1"
             d="M 412.68699,427.80351 396.8504,443.6401 381.01381,427.80351 396.8504,411.96693 Z" />
          <g
             inkscape:transform-center-y="13.999998"
             inkscape:transform-center-x="-3.4118418"
             id="g1183">
            <path
               inkscape:connector-curvature="0"
               id="path1508"
               transform="translate(216.8504,381.25983)"
               d="M 125,40.482422 A 150,150 0 0 0 30,180 a 150,150 0 0 0 1.832031,22.13867 l 59.06836,-34.10156 A 90,90 0 0 1 125,108.82422 Z"
               style="color:#000000;clip-rule:nonzero;display:inline;overflow:visible;visibility:visible;opacity:1;isolation:auto;mix-blend-mode:normal;color-interpolation:sRGB;color-interpolation-filters:linearRGB;solid-color:#000000;solid-opacity:1;vector-effect:none;fill:#40ff40;fill-opacity:1;fill-rule:nonzero;stroke:none;stroke-width:1;stroke-linecap:butt;stroke-linejoin:miter;stroke-miterlimit:4;stroke-dasharray:none;stroke-dashoffset:0;stroke-opacity:1;paint-order:markers fill stroke;color-rendering:auto;image-rendering:auto;shape-rendering:auto;text-rendering:auto;enable-background:accumulate" />
            <path
               inkscape:connector-curvature="0"
               id="path1506"
               transform="translate(216.8504,381.25983)"
               d="m 235,40.595703 v 68.302737 a 90,90 0 0 1 34.0957,59.13476 l 59.12696,34.13672 A 150,150 0 0 0 330,180 150,150 0 0 0 235,40.595703 Z"
               style="color:#000000;clip-rule:nonzero;display:inline;overflow:visible;visibility:visible;opacity:1;isolation:auto;mix-blend-mode:normal;color-interpolation:sRGB;color-interpolation-filters:linearRGB;solid-color:#000000;solid-opacity:1;vector-effect:none;fill:#463ff5;fill-opacity:1;fill-rule:nonzero;stroke:none;stroke-width:1;stroke-linecap:butt;stroke-linejoin:miter;stroke-miterlimit:4;stroke-dasharray:none;stroke-dashoffset:0;stroke-opacity:1;paint-order:markers fill stroke;color-rendering:auto;image-rendering:auto;shape-rendering:auto;text-rendering:auto;enable-background:accumulate" />
            <path
               inkscape:connector-curvature="0"
               id="path1402"
               transform="translate(216.8504,381.25983)"
               d="M 214.01953,263.25391 A 90,90 0 0 1 180,270 90,90 0 0 1 145.96289,263.26367 L 86.720703,297.4668 A 150,150 0 0 0 180,330 150,150 0 0 0 273.13672,297.38477 Z"
               style="color:#000000;clip-rule:nonzero;display:inline;overflow:visible;visibility:visible;opacity:1;isolation:auto;mix-blend-mode:normal;color-interpolation:sRGB;color-interpolation-filters:linearRGB;solid-color:#000000;solid-opacity:1;vector-effect:none;fill:#ff4040;fill-opacity:1;fill-rule:nonzero;stroke:none;stroke-width:1;stroke-linecap:butt;stroke-linejoin:miter;stroke-miterlimit:4;stroke-dasharray:none;stroke-dashoffset:0;stroke-opacity:1;paint-order:markers fill stroke;color-rendering:auto;image-rendering:auto;shape-rendering:auto;text-rendering:auto;enable-background:accumulate" />
            <path
               d="m 401.93179,577.74685 h -10.16276 v -1.07097 q 0.86588,-0.59244 1.45833,-1.18489 0.61523,-0.59245 1.0026,-1.25326 0.38737,-0.68359 0.59245,-1.45833 0.20508,-0.79753 0.29623,-1.77734 v -0.56967 q -1.07097,0.79753 -2.34701,1.25326 -1.27604,0.45573 -2.6888,0.45573 -1.75456,0 -3.30404,-0.66081 -1.54948,-0.66081 -2.6888,-1.80013 -1.13932,-1.16211 -1.80013,-2.6888 -0.66081,-1.54948 -0.66081,-3.30404 0,-1.57226 0.5013,-2.96224 0.52409,-1.38997 1.48112,-2.48372 0.11394,-0.13672 0.22787,-0.27344 0.13672,-0.13672 0.52409,-0.52409 0.41015,-0.41015 1.20768,-1.20768 0.79752,-0.79753 2.21029,-2.21029 1.43554,-1.43554 3.62304,-3.62304 2.21029,-2.21029 5.42318,-5.42318 3.1901,3.1901 5.35482,5.35482 2.1875,2.16471 3.60026,3.57747 1.41276,1.38998 2.16471,2.16472 0.77474,0.75195 1.13932,1.11653 0.36459,0.36459 0.43295,0.45573 0.0911,0.0911 0.13672,0.13672 1.27604,1.43555 1.8457,2.89388 0.56966,1.43555 0.56966,3.00781 0,1.75456 -0.66081,3.30404 -0.6608,1.52669 -1.82291,2.6888 -1.13933,1.13932 -2.68881,1.80013 -1.52669,0.66081 -3.28125,0.66081 -1.45833,0 -2.73437,-0.45573 -1.27604,-0.45573 -2.36979,-1.25326 v 0.56967 q 0.0911,0.97981 0.29622,1.77734 0.22787,0.77474 0.61524,1.45833 0.41015,0.66081 1.02539,1.25326 0.61523,0.59245 1.48112,1.18489 z"
               style="font-style:normal;font-variant:normal;font-weight:bold;font-stretch:normal;font-size:46.6667px;line-height:125%;font-family:'Segoe UI Emoji';-inkscape-font-specification:'Segoe UI Emoji Bold';letter-spacing:0px;word-spacing:0px;fill:#ffffff;fill-opacity:1;stroke:#160000;stroke-width:1;stroke-linecap:butt;stroke-linejoin:miter;stroke-miterlimit:4;stroke-dasharray:none;stroke-opacity:1"
               id="path1413"
               inkscape:connector-curvature="0" />
            <path
               d="m 290.04205,632.36982 q 0.69885,1.43832 0.82157,2.97248 0.12271,1.53415 -0.29208,2.95765 -0.41479,1.4235 -1.36178,2.65435 -0.92727,1.21945 -2.32836,2.02837 -1.46028,0.8431 -3.08171,1.04251 -1.60171,0.18803 -3.11554,-0.20092 -1.49409,-0.40034 -2.79553,-1.3329 -1.28169,-0.94394 -2.1134,-2.3845 -0.91146,-1.57869 -1.06307,-3.25403 -0.13187,-1.68673 0.31322,-3.2856 l -0.37493,0.21647 q -0.76354,0.54602 -1.45033,1.17938 -0.68681,0.63333 -1.22326,1.39035 -0.52506,0.77676 -0.89145,1.64609 -0.35498,0.88904 -0.42678,1.90401 l -0.90775,0.52409 -4.88769,-8.46574 0.86828,-0.5013 q 0.92322,0.41419 1.85928,0.53156 0.94742,0.13709 1.85987,0.0313 0.94356,-0.0975 1.83544,-0.3756 0.90328,-0.2584 1.75794,-0.64658 l 0.37494,-0.21647 q -1.60721,-0.41396 -3.01342,-1.39127 -1.37508,-0.96898 -2.26375,-2.5082 -0.8431,-1.46029 -1.03113,-3.06198 -0.1569,-1.59336 0.24344,-3.08745 0.42008,-1.50549 1.38377,-2.79859 0.98341,-1.30449 2.44369,-2.14759 1.40109,-0.80892 2.92081,-1.00222 1.53944,-0.20471 2.97961,0.14783 1.45158,0.37226 2.71885,1.24561 1.27865,0.89309 2.17485,2.21747 0.13507,-0.13063 0.23372,-0.18759 0.11841,-0.0684 0.27628,-0.15951 1.46029,-0.8431 3.04225,-1.01972 1.6017,-0.18802 3.09579,0.21232 1.49409,0.40034 2.7758,1.34428 1.29311,0.96368 2.13621,2.42398 0.84309,1.46028 1.01972,3.04225 0.18802,1.6017 -0.21232,3.09579 -0.40034,1.49409 -1.36402,2.78719 -0.94394,1.28171 -2.40423,2.12481 z"
               style="font-style:normal;font-variant:normal;font-weight:bold;font-stretch:normal;font-size:46.6667px;line-height:125%;font-family:'Segoe UI Emoji';-inkscape-font-specification:'Segoe UI Emoji Bold';letter-spacing:0px;word-spacing:0px;opacity:1;vector-effect:none;fill:#ffffff;fill-opacity:1;stroke:#160000;stroke-width:1;stroke-linecap:butt;stroke-linejoin:miter;stroke-miterlimit:4;stroke-dasharray:none;stroke-dashoffset:0;stroke-opacity:1"
               id="path1415"
               inkscape:connector-curvature="0" />
            <path
               d="m 346.55228,618.63906 q -38.56435,-31.95165 -71.98752,-12.65478 -5.81861,3.35938 -11.4363,8.31675 -7.17101,6.48568 -7.95562,10.90796 -0.74835,3.86007 2.65009,9.74634 5.82031,10.08107 16.85722,14.35381 11.7163,4.51197 21.39142,-1.07397 7.17177,-4.14062 7.94441,-13.42738 0.65059,-8.4044 -3.68534,-15.91446 -3.28125,-5.68329 -10.29493,-11.73758 13.32758,5.11528 20.51508,17.5644 6.875,11.90785 2.88131,24.67808 -3.97556,12.48912 -15.81576,19.32506 -10.75765,6.21094 -23.99102,2.66507 -11.92413,-3.30944 -21.21109,-12.83243 2.36578,-8.40234 2.44446,-14.67232 0.17008,-5.33042 -1.37375,-14.72315 -5.34405,14.18134 -4.0645,27.33508 l -0.90049,0.15905 q -5.94872,-12.80348 -4.68379,-29.05007 1.30398,-16.17893 9.32446,-27.75581 6.50901,-9.35106 19.49939,-16.85106 28.28114,-16.32812 62.95437,-0.80359 5.8136,21.63196 10.9379,36.445 z"
               style="font-style:normal;font-variant:normal;font-weight:bold;font-stretch:normal;font-size:160px;line-height:125%;font-family:Shanghai;-inkscape-font-specification:'Shanghai Bold';letter-spacing:0px;word-spacing:0px;fill:#463ff5;fill-opacity:1;stroke:none;stroke-width:1px;stroke-linecap:butt;stroke-linejoin:miter;stroke-opacity:1"
               id="path1430"
               inkscape:connector-curvature="0" />
            <path
               d="m 398.06133,383.25982 q 18.35938,7.1875 29.21875,24.14062 10.54688,16.5625 10.54688,36.48438 0,19.92187 -12.73438,35 -11.79687,13.90625 -31.79687,20.54687 l -36.71875,-17.57812 q 26.40625,-0.9375 44.21875,-14.6875 19.6875,-15.3125 19.6875,-40.46875 0,-10.39063 -3.51563,-20 -4.84375,-1.875 -10.9375,-1.875 -12.65625,0 -21.01562,6.40625 -9.21875,7.03125 -9.21875,19.21875 0,9.21875 6.875,14.6875 6.32812,5.07812 15.85937,5.07812 7.1875,0 16.5625,-5.46875 -8.98437,11.79688 -25.9375,11.79688 -13.35937,0 -23.4375,-11.09375 -9.84375,-10.78125 -9.84375,-24.21875 0,-12.96875 10.46875,-22.89063 4.6875,-4.53125 12.42188,-8.67187 8.75,-4.76563 13.98437,-4.76563 l 0.70313,0.0781 q 8.59375,10.39062 21.40625,17.42187 -4.0625,-7.03125 -7.34375,-10.54687 -2.73438,-2.8125 -9.92188,-8.04688 z"
               style="font-style:normal;font-variant:normal;font-weight:bold;font-stretch:normal;font-size:160px;line-height:125%;font-family:Shanghai;-inkscape-font-specification:'Shanghai Bold';letter-spacing:0px;word-spacing:0px;fill:#ff4040;fill-opacity:1;stroke:none;stroke-width:1px;stroke-linecap:butt;stroke-linejoin:miter;stroke-opacity:1"
               id="path1432"
               inkscape:connector-curvature="0" />
            <path
               d="m 506.36282,624.5904 q -0.3747,-0.90044 -0.61047,-1.90483 -0.22439,-1.02415 -0.25364,-2.06718 -0.0293,-1.04306 0.18436,-2.05111 0.21363,-1.00806 0.74911,-1.93554 0.91146,-1.57869 2.33213,-2.62659 1.40093,-1.05929 3.03926,-1.4816 1.62999,-0.45343 3.37287,-0.23653 1.75428,0.19718 3.33298,1.10864 0.592,0.34179 1.35775,1.0207 0.77713,0.65917 1.58599,1.81027 0.82026,1.13136 1.61527,2.85331 0.80641,1.70222 1.48809,4.12177 0.66195,2.40817 1.1422,5.63234 0.46051,3.21278 0.589,7.36523 -3.74237,1.97025 -6.75497,3.17782 -3.01261,1.20757 -5.40937,1.84978 -2.38539,0.62248 -4.21189,0.77827 -1.83485,0.12467 -3.19364,-0.0283 -1.37853,-0.16442 -2.33796,-0.50785 -0.96776,-0.37456 -1.63871,-0.76193 -1.57868,-0.91146 -2.62659,-2.33212 -1.04789,-1.42067 -1.47019,-3.059 -0.44205,-1.64971 -0.22516,-3.3926 0.19718,-1.75429 1.10864,-3.33297 0.52409,-0.90775 1.29027,-1.59678 0.76619,-0.68906 1.67275,-1.1655 0.91794,-0.49618 1.90565,-0.79419 0.99912,-0.31775 1.96627,-0.44346 z"
               style="font-style:normal;font-variant:normal;font-weight:bold;font-stretch:normal;font-size:46.6667px;line-height:125%;font-family:'Segoe UI Emoji';-inkscape-font-specification:'Segoe UI Emoji Bold';letter-spacing:0px;word-spacing:0px;opacity:1;vector-effect:none;fill:#ffffff;fill-opacity:1;stroke:#160000;stroke-width:1;stroke-linecap:butt;stroke-linejoin:miter;stroke-miterlimit:4;stroke-dasharray:none;stroke-dashoffset:0;stroke-opacity:1"
               id="path1417"
               inkscape:connector-curvature="0" />
            <path
               d="m 473.33373,577.285 q -8.38877,49.37354 25.0344,68.67041 5.81861,3.35938 12.92067,5.74575 9.20226,2.96745 13.42437,1.4358 3.71709,-1.28195 7.11553,-7.16822 5.82031,-10.08108 4.00216,-21.77568 -1.95067,-12.4026 -11.62579,-17.98854 -7.17178,-4.14062 -15.60066,-0.16637 -7.60372,3.63878 -11.93966,11.14884 -3.28125,5.68329 -5.01757,14.78445 -2.23383,-14.09966 4.95367,-26.54877 6.875,-11.90785 19.93119,-14.83433 12.80368,-2.80163 24.64388,4.03431 10.75765,6.21094 14.30352,19.44431 3.09601,11.98131 -0.50766,24.78555 -8.45953,2.15234 -13.92883,5.21919 -4.70133,2.51793 -12.06375,8.55128 14.95342,-2.46258 25.70512,-10.14757 l 0.58799,0.70031 q -8.11378,11.55349 -22.81621,18.58133 -14.66335,6.96018 -28.69946,5.80268 -11.35276,-0.96144 -24.34314,-8.46144 -28.28114,-16.32812 -32.17312,-54.11828 15.82703,-15.85071 26.09335,-27.69501 z"
               style="font-style:normal;font-variant:normal;font-weight:bold;font-stretch:normal;font-size:160px;line-height:125%;font-family:Shanghai;-inkscape-font-specification:'Shanghai Bold';letter-spacing:0px;word-spacing:0px;fill:#40ff40;fill-opacity:1;stroke:none;stroke-width:1px;stroke-linecap:butt;stroke-linejoin:miter;stroke-opacity:1"
               id="path1434"
               inkscape:connector-curvature="0" />
            <path
               d="m 408.95978,504.89264 0.39062,-0.625 q 16.79688,8.90625 26.17188,23.67187 9.6875,15.23438 9.6875,33.67188 0,13.82812 -5.78125,26.09375 -6.01563,12.8125 -16.875,20.70312 -11.5625,8.51563 -18.75,8.51563 -3.75,0 -11.95313,-2.96875 -6.01562,-2.26563 -12.03125,-4.53125 4.375,4.29687 8.75,8.125 l -0.54687,0.70312 q -18.20313,-8.4375 -28.75,-24.45312 -10.78125,-16.25 -10.78125,-36.01563 0,-28.4375 22.57812,-44.92187 10.9375,-7.96875 18.82813,-7.96875 5.3125,0 14.45312,3.51562 7.03125,3.04688 14.0625,6.09375 -1.01562,-1.5625 -9.45312,-9.60937 z m -36.01563,96.875 q 23.59375,-3.51563 38.98438,-17.73438 16.79687,-15.54687 16.79687,-38.35937 0,-13.90625 -6.5625,-25.85938 -22.73437,1.25 -39.45312,16.79688 -17.34375,16.17187 -17.34375,38.28125 0,14.76562 7.57812,26.875 z"
               style="font-style:normal;font-variant:normal;font-weight:bold;font-stretch:normal;font-size:160px;line-height:125%;font-family:Shanghai;-inkscape-font-specification:'Shanghai Bold';letter-spacing:0px;word-spacing:0px;fill:#ffff40;fill-opacity:1;stroke:none;stroke-width:1px;stroke-linecap:butt;stroke-linejoin:miter;stroke-opacity:1"
               id="path1436"
               inkscape:connector-curvature="0" />
          </g>
        </g>
      </g>
    </g>
  </g>
</svg>
